<svg id="Layer_1" enable-background="new 0 0 512 512" height="512" viewBox="0 0 512 512" width="512" xmlns="http://www.w3.org/2000/svg"><g><g><path d="m24 448h400c-8.837 0-16-7.163-16-16v-80h-400v80c0 8.837 7.163 16 16 16z" fill="#d26e28"/></g><g><path d="m88 112h32v160h-32z" fill="#d26e28"/></g><g><path d="m104 112h16v160h-16z" fill="#a55023"/></g><g><path d="m368 152c22.091 0 40-17.909 40-40h-80c0 22.091 17.909 40 40 40z" fill="#f5871e"/></g><g><path d="m408 112h-80v-8c0-22.091 17.909-40 40-40h80c-22.091 0-40 17.909-40 40z" fill="#fabe19"/></g><g><path d="m288 152c22.091 0 40-17.909 40-40h-80c0 22.091 17.909 40 40 40z" fill="#d7322d"/></g><g><path d="m328 112h-80v-8c0-22.091 17.909-40 40-40h80c-22.091 0-40 17.909-40 40z" fill="#f04b37"/></g><g><path d="m208 152c22.091 0 40-17.909 40-40h-80c0 22.091 17.909 40 40 40z" fill="#f5871e"/></g><g><path d="m248 112h-80v-8c0-22.091 17.909-40 40-40h80c-22.091 0-40 17.909-40 40z" fill="#fabe19"/></g><g><path d="m128 152c22.091 0 40-17.909 40-40h-80c0 22.091 17.909 40 40 40z" fill="#d7322d"/></g><g><path d="m168 112h-80v-8c0-22.091 17.909-40 40-40h80c-22.091 0-40 17.909-40 40z" fill="#f04b37"/></g><g><path d="m48 152c22.091 0 40-17.909 40-40h-80c0 22.091 17.909 40 40 40z" fill="#f5871e"/></g><g><path d="m88 112h-80v-8c0-22.091 17.909-40 40-40h82.667-2.667c-22.091 0-40 17.909-40 40z" fill="#fabe19"/></g><g><path d="m464 64h-16c-22.091 0-40 17.909-40 40v8h96v-8c0-22.091-17.909-40-40-40z" fill="#f5871e"/></g><g><path d="m472 112h16v160h-16z" fill="#d26e28"/></g><g><path d="m488 112v160l-80 80v80c0 8.836 7.163 16 16 16h64c8.837 0 16-7.164 16-16v-320z" fill="#a55023"/></g><g><path d="m8 352 80-80h400l-80 80z" fill="#faa037"/></g><g><g><path d="m449.372 284h-168.039l-56 56h171.069c4.243 0 8.313-1.686 11.314-4.686l44.485-44.485c2.52-2.52.735-6.829-2.829-6.829z" fill="#a55023"/></g><g><path d="m265.333 284h-165.735c-4.243 0-8.313 1.686-11.314 4.686l-44.485 44.485c-2.52 2.52-.735 6.828 2.828 6.828h162.706z" fill="#a55023"/></g></g><g><g><path d="m92 320c6.627 0 12 5.373 12 12v-24c0-6.627-5.373-12-12-12s-12 5.373-12 12v24c0-6.627 5.373-12 12-12z" fill="#69a041"/></g><g><path d="m116 320c6.627 0 12 5.373 12 12v-24c0-6.627-5.373-12-12-12s-12 5.373-12 12v24c0-6.627 5.373-12 12-12z" fill="#4b8c41"/></g><g><path d="m140 320c6.627 0 12 5.373 12 12v-24c0-6.627-5.373-12-12-12s-12 5.373-12 12v24c0-6.627 5.373-12 12-12z" fill="#69a041"/></g><g><path d="m164 320c6.627 0 12 5.373 12 12v-24c0-6.627-5.373-12-12-12s-12 5.373-12 12v24c0-6.627 5.373-12 12-12z" fill="#4b8c41"/></g><g><path d="m188 320c6.627 0 12 5.373 12 12v-24c0-6.627-5.373-12-12-12s-12 5.373-12 12v24c0-6.627 5.373-12 12-12z" fill="#69a041"/></g><g><path d="m224 308c0-6.627-5.373-12-12-12s-12 5.373-12 12v24 8h9.333l14.667-14.667z" fill="#4b8c41"/></g><g><path d="m80 332c0-6.627-5.373-12-12-12s-12 5.373-12 12v8h24v-1.333z" fill="#afd763"/></g><g><path d="m92 320c-6.627 0-12 5.373-12 12v6.667 1.333h24v-8c0-6.627-5.373-12-12-12z" fill="#91b945"/></g><g><path d="m128 332c0-6.627-5.373-12-12-12s-12 5.373-12 12v8h24v-1.333z" fill="#afd763"/></g><g><path d="m140 320c-6.627 0-12 5.373-12 12v6.667 1.333h24v-8c0-6.627-5.373-12-12-12z" fill="#91b945"/></g><g><path d="m176 332c0-6.627-5.373-12-12-12s-12 5.373-12 12v8h24v-1.333z" fill="#afd763"/></g><g><path d="m188 320c-6.627 0-12 5.373-12 12v6.667 1.333h24v-8c0-6.627-5.373-12-12-12z" fill="#91b945"/></g></g><g><g><path d="m303.043 330.018c-.902-.601-1.063-1.881-.312-2.662 3.187-3.309 7.314-5.703 11.952-6.757v-3.266c0-1.507.629-2.864 1.634-3.834-.857-2.681-2.23-5.128-4.002-7.231-.435.076-.89.004-1.272-.251l-7.026-4.684-7.026 4.684c-.589.393-1.358.393-1.947 0l-7.026-4.684-7.027 4.684c-.391.26-.858.332-1.301.247-1.785 2.118-3.168 4.583-4.024 7.286 1.029 1.033 1.669 2.469 1.669 4.012v3.037c4.638 1.054 8.765 3.448 11.952 6.757.752.78.59 2.061-.312 2.662-.203.135-.43.207-.66.249 2.31 2.741 3.937 6.071 4.632 9.734h6.109c.696-3.664 2.323-6.994 4.634-9.736-.227-.044-.448-.115-.647-.247z" fill="#d7322d"/></g><g><path d="m351.01 330.018c-.901-.601-1.063-1.881-.312-2.662 3.187-3.309 7.314-5.703 11.952-6.757v-3.266c0-1.519.638-2.887 1.658-3.858-.858-2.673-2.229-5.113-3.997-7.211-.444.085-.911.014-1.301-.247l-7.027-4.684-7.026 4.684c-.59.393-1.358.393-1.947 0l-7.026-4.684-7.026 4.684c-.382.255-.837.327-1.272.251-1.781 2.113-3.16 4.574-4.016 7.27 1.036 1.034 1.681 2.475 1.681 4.024v3.037c4.638 1.054 8.765 3.448 11.952 6.757.752.78.59 2.061-.312 2.662-.207.138-.439.21-.675.251 2.309 2.741 3.935 6.069 4.63 9.731h6.109c.695-3.662 2.321-6.991 4.63-9.731-.236-.041-.468-.113-.675-.251z" fill="#d7322d"/></g><g><path d="m408.307 306.26c-.452.094-.931.024-1.331-.242l-7.026-4.684-7.026 4.684c-.59.393-1.358.393-1.947 0l-7.026-4.684-7.026 4.684c-.374.249-.817.322-1.243.255-1.784 2.119-3.166 4.586-4.021 7.29 1.022 1.032 1.657 2.463 1.657 4v3.037c4.638 1.054 8.765 3.448 11.952 6.757.752.78.59 2.061-.312 2.662-.199.133-.42.204-.646.247 2.311 2.742 3.938 6.072 4.634 9.736h7.456c1.571 0 3.117-.234 4.595-.677 7.28-3.396 12.336-10.76 12.336-19.323 0-5.239-1.894-10.029-5.026-13.742z" fill="#d7322d"/></g><g><path d="m287.026 330.018-7.026-4.685-7.026 4.684c-.59.393-1.358.393-1.947 0l-7.027-4.684-7.026 4.684c-.386.258-.848.329-1.287.249-2.31 2.741-3.937 6.071-4.632 9.734h41.891c-.696-3.663-2.322-6.992-4.632-9.734-.44.081-.901.009-1.288-.248z" fill="#f04b37"/></g><g><path d="m335.043 330.018-7.026-4.684-7.026 4.684c-.589.393-1.358.393-1.947 0l-7.026-4.684-7.027 4.684c-.391.26-.858.332-1.301.247-2.311 2.742-3.938 6.072-4.634 9.736h41.891c-.695-3.662-2.321-6.991-4.63-9.731-.437.074-.892.002-1.274-.252z" fill="#f04b37"/></g><g><path d="m383.01 330.018-7.027-4.684-7.026 4.684c-.59.393-1.358.393-1.947 0l-7.026-4.684-7.026 4.684c-.382.255-.837.327-1.272.251-2.309 2.741-3.935 6.069-4.63 9.731h41.891c-.696-3.664-2.323-6.994-4.634-9.736-.445.085-.912.014-1.303-.246z" fill="#f04b37"/></g><g><path d="m256.974 330.018 7.026-4.684 7.026 4.684c.59.393 1.358.393 1.947 0l7.026-4.684 7.026 4.684c.386.258.848.329 1.287.249.231-.042.457-.114.66-.249.901-.601 1.063-1.881.312-2.662-3.187-3.309-7.314-5.703-11.952-6.757v-3.037c0-1.543-.64-2.979-1.669-4.012-.828-.832-1.904-1.407-3.141-1.526-3.181-.303-5.857 2.19-5.857 5.308v3.266c-4.638 1.054-8.765 3.448-11.952 6.757-.752.78-.59 2.061.312 2.662.203.135.43.207.66.249.441.081.902.009 1.289-.248z" fill="#69a041"/></g><g><path d="m314.683 320.599c-4.638 1.054-8.765 3.448-11.952 6.757-.752.78-.59 2.061.312 2.662.199.133.42.204.646.247.444.085.911.014 1.301-.247l7.027-4.684 7.026 4.684c.59.393 1.358.393 1.947 0l7.026-4.684 7.026 4.684c.382.255.837.327 1.272.251.236-.041.468-.113.675-.251.901-.601 1.063-1.881.312-2.662-3.187-3.309-7.314-5.703-11.952-6.757v-3.037c0-1.549-.645-2.99-1.681-4.024-.827-.825-1.897-1.396-3.128-1.514-1.644-.156-3.149.437-4.223 1.474-1.005.97-1.634 2.327-1.634 3.834z" fill="#69a041"/></g><g><path d="m280.99 306.018 7.027-4.684 7.026 4.684c.59.393 1.358.393 1.947 0l7.026-4.684 7.026 4.684c.382.255.837.327 1.272.251.236-.041.468-.113.675-.251.901-.601 1.063-1.881.312-2.662-3.187-3.309-7.314-5.703-11.952-6.757v-3.037c0-2.785-2.037-5.273-4.81-5.537-3.181-.303-5.857 2.19-5.857 5.308v3.266c-4.638 1.054-8.765 3.448-11.952 6.757-.752.78-.59 2.061.312 2.662.199.133.42.204.646.247.444.084.911.013 1.302-.247z" fill="#4b8c41"/></g><g><path d="m328.957 306.018 7.026-4.684 7.026 4.684c.589.393 1.358.393 1.947 0l7.026-4.684 7.027 4.684c.391.26.858.332 1.301.247.226-.043.447-.114.646-.247.902-.601 1.063-1.881.312-2.662-3.187-3.309-7.314-5.703-11.952-6.757v-3.037c0-2.785-2.036-5.273-4.809-5.537-3.181-.303-5.857 2.19-5.857 5.308v3.266c-4.638 1.054-8.765 3.448-11.952 6.757-.752.78-.59 2.061.312 2.662.207.138.439.21.675.251.435.075.89.003 1.272-.251z" fill="#4b8c41"/></g><g><path d="m376.924 306.018 7.026-4.684 7.026 4.684c.59.393 1.358.393 1.947 0l7.026-4.684 7.026 4.684c.399.266.878.337 1.331.242.216-.045.426-.116.617-.242.901-.601 1.063-1.881.312-2.662-3.187-3.309-7.314-5.703-11.952-6.757v-3.037c0-2.785-2.037-5.273-4.81-5.537-3.181-.303-5.857 2.19-5.857 5.308v3.266c-4.638 1.054-8.765 3.448-11.952 6.757-.752.78-.59 2.061.312 2.662.216.144.458.217.704.255.427.066.87-.006 1.244-.255z" fill="#4b8c41"/></g><g><path d="m362.65 320.599c-4.638 1.054-8.765 3.448-11.952 6.757-.752.78-.59 2.061.312 2.662.207.138.439.21.675.251.435.076.89.004 1.272-.251l7.026-4.684 7.026 4.684c.589.393 1.358.393 1.947 0l7.026-4.684 7.027 4.684c.391.26.858.332 1.301.247.226-.043.447-.114.646-.247.902-.601 1.063-1.881.312-2.662-3.187-3.309-7.314-5.703-11.952-6.757v-3.037c0-1.537-.635-2.968-1.657-4-.83-.838-1.91-1.419-3.153-1.538-1.631-.155-3.126.428-4.199 1.45-1.019.971-1.658 2.339-1.658 3.858v3.267z" fill="#69a041"/></g></g></g></svg>