<svg id="color" enable-background="new 0 0 24 24" height="512" viewBox="0 0 24 24" width="512" xmlns="http://www.w3.org/2000/svg"><g><g><path d="m20.54 11.171v.72c0 .61-.5 1.11-1.119 1.11h-1.841c-.54 0-1.119-.4-1.119-1.29v-.54z" fill="#607d8b"/></g></g><g><g><path d="m23.001 5.471c0 1.35-.601 2.61-1.65 3.46-.42.34-.69.78-.78 1.24-.02.11-.03.23-.03.34v.66h-4.079v-.76l-.021-.24c-.07-.45-.32-.87-.729-1.19-1.11-.87-1.74-2.18-1.71-3.6.049-2.381 2.038-4.35 4.429-4.381 1.21-.03 2.37.44 3.24 1.3.859.841 1.33 1.97 1.33 3.171z" fill="#ffc107"/></g></g><g><g><path d="m18.5 11.171h-2.039v.54c0 .89.579 1.29 1.119 1.29h.92z" fill="#546d79"/></g></g><g><g><path d="m18.5.999c-.023 0-.046.001-.069.001-2.391.03-4.38 2-4.43 4.38-.03 1.42.6 2.73 1.71 3.6.409.32.659.74.729 1.19l.021.24v.76h2.039z" fill="#dea806"/></g></g><g><g><path d="m22 17.5c-2 0-6 2.531-8 2.531s-4.25-1.531-4.25-1.531 2.693.5 4.25.5 2-.531 2-1.25c0-1.75-2.973-2.022-4.476-2.251-1.477-.821-3.037-1.332-5.481-1.539-.015.142-.037.284-.077.426l-2.009 7.08c2.275 1.034 6.986 2.534 9.043 2.534 3 0 11-4 11-5s-1-1.5-2-1.5z" fill="#ffcc80"/></g></g><g><g><path d="m3.5 22h-2.75c-.414 0-.75-.336-.75-.75v-8.5c0-.414.336-.75.75-.75 3.505 0 5.138 1.217 5.205 1.268.242.186.349.498.27.793l-2 7.385c-.089.327-.386.554-.725.554z" fill="#607d8b"/></g></g><g><g><path d="m6.242 13.978c-.004.028-.01.055-.017.083l-2 7.385c-.011.042-.026.082-.044.12 2.01.88 5.583 2.038 7.819 2.352v-4.287c-1.255-.454-2.25-1.131-2.25-1.131s1.069.199 2.25.345v-3.277c-.17-.024-.329-.047-.476-.069-1.436-.799-2.951-1.304-5.282-1.521z" fill="#deb26f"/></g></g><g><g><path d="m.75 12c-.414 0-.75.336-.75.75v8.5c0 .414.336.75.75.75h2.75c.296 0 .559-.172.681-.434.018-.038.032-.078.044-.12l2-7.385c.007-.028.013-.055.017-.083.041-.269-.067-.542-.287-.71-.067-.051-1.7-1.268-5.205-1.268z" fill="#546d79"/></g></g></svg>